<svg width="200" height="200" viewBox="0 0 200 200" xmlns="http://www.w3.org/2000/svg">
                    <!-- Outer decorative ring -->
                    <circle cx="100" cy="100" r="95" fill="none" stroke="#d4af37" stroke-width="6"/>
                    <circle cx="100" cy="100" r="88" fill="none" stroke="#d4af37" stroke-width="2"/>
                    
                    <!-- Main seal background -->
                    <circle cx="100" cy="100" r="80" fill="#1e3a8a"/>
                    
                    <!-- Inner circle -->
                    <circle cx="100" cy="100" r="65" fill="none" stroke="#d4af37" stroke-width="3"/>
                    <circle cx="100" cy="100" r="60" fill="#fefcf7"/>
                    
                    <!-- Eagle emblem -->
                    <g transform="translate(100,85)" fill="#1e3a8a">
                        <!-- Eagle wings and body -->
                        <path d="M-25,-12 Q-30,-18 -35,-15 Q-32,-8 -20,-10 L-12,-8 L-8,-5 L0,-8 L8,-5 L12,-8 L20,-10 Q32,-8 35,-15 Q30,-18 25,-12 L18,-8 L12,-10 L8,-8 L0,0 L-8,-8 L-12,-10 L-18,-8 Z"/>
                        <!-- Eagle head -->
                        <circle cx="0" cy="-5" r="6"/>
                        <!-- Beak -->
                        <path d="M6,-5 L12,-3 L8,0 Z" fill="#d4af37"/>
                        <!-- Eye -->
                        <circle cx="3" cy="-7" r="1.5" fill="#fefcf7"/>
                        <!-- Tail feathers -->
                        <path d="M-10,12 L-8,20 L-4,18 L0,22 L4,18 L8,20 L10,12 L0,15 Z"/>
                    </g>
                    
                    <!-- Text around circle -->
                    <path id="circle-text-top" d="M 100,100 m -75,0 a 75,75 0 0,1 150,0" fill="none"/>
                    <path id="circle-text-bottom" d="M 100,100 m -75,0 a 75,75 0 0,0 150,0" fill="none"/>
                    
                    <text font-family="Times New Roman, serif" font-size="12" font-weight="600" fill="#d4af37">
                        <textPath href="#circle-text-top" startOffset="50%" text-anchor="middle">FUTURE FOUNDATIONS</textPath>
                    </text>
                    <text font-family="Times New Roman, serif" font-size="12" font-weight="600" fill="#d4af37">
                        <textPath href="#circle-text-bottom" startOffset="50%" text-anchor="middle">POLITICAL ACTION COMMITTEE</textPath>
                    </text>
                    
                    <!-- Center text -->
                    <text x="100" y="125" text-anchor="middle" font-family="Times New Roman, serif" font-size="10" font-weight="bold" fill="#1e3a8a">EST. MMXXV</text>
                    
                    <!-- Decorative stars -->
                    <g fill="#d4af37">
                        <path d="M70,40 L72,45 L77,45 L73,48 L75,53 L70,50 L65,53 L67,48 L63,45 L68,45 Z"/>
                        <path d="M130,40 L132,45 L137,45 L133,48 L135,53 L130,50 L125,53 L127,48 L123,45 L128,45 Z"/>
                    </g>
                </svg>