<svg width="120" height="120" viewBox="0 0 200 200" xmlns="http://www.w3.org/2000/svg">
                    <!-- Simplified version -->
                    <circle cx="100" cy="100" r="90" fill="#1e3a8a"/>
                    <circle cx="100" cy="100" r="70" fill="#fefcf7"/>
                    <circle cx="100" cy="100" r="68" fill="none" stroke="#d4af37" stroke-width="3"/>
                    
                    <!-- Eagle -->
                    <g transform="translate(100,85)" fill="#1e3a8a">
                        <path d="M-20,-10 C-25,-15 -30,-12 -25,-5 L-15,-8 L-10,-5 L0,-8 L10,-5 L15,-8 L25,-5 C30,-12 25,-15 20,-10 L15,-5 L10,-8 L0,0 L-10,-8 L-15,-5 Z"/>
                        <circle cx="0" cy="0" r="3"/>
                        <path d="M-8,8 L-5,15 L0,12 L5,15 L8,8 L0,10 Z"/>
                    </g>
                    
                    <text x="100" y="110" text-anchor="middle" font-family="Times New Roman, serif" font-size="10" font-weight="bold" fill="#1e3a8a">FUTURE</text>
                    <text x="100" y="122" text-anchor="middle" font-family="Times New Roman, serif" font-size="10" font-weight="bold" fill="#1e3a8a">FOUNDATIONS</text>
                    <text x="100" y="134" text-anchor="middle" font-family="Times New Roman, serif" font-size="10" font-weight="bold" fill="#1e3a8a">PAC</text>
                </svg>